# xmcd CD database file
#
# Track frame offsets:
#	200
#	48797
#	76955
#	93052
#	126407
#	146415
#	178680
#	192295
#	220785
#	247747
#
# Disc length: 3341 seconds
#
# Revision: 0
# Processed by: cddbd v1.5.2PL0 Copyright (c) Steve Scherf et al.
# Submitted via: CDex 1.70beta2
#
DISCID=7c0d0b0a
DTITLE=Splatter Trio - Fistful Of Dewey
DYEAR=1992
DGENRE=Jazz
TTITLE0=Loose And Baggy Monsters
TTITLE1='Musing (for Mingus)
TTITLE2=The Music Of Upper And Lower Sivad
TTITLE3=Dear Jonathan
TTITLE4=Correct Change
TTITLE5=River To Lagos
TTITLE6=Pollock's Bollocks
TTITLE7=Peter Herley Pt. 1
TTITLE8=Peter Herley Pt. 2
TTITLE9=Untitled
EXTD=YEAR: 1992
EXTT0=
EXTT1=
EXTT2=
EXTT3=
EXTT4=
EXTT5=
EXTT6=
EXTT7=
EXTT8=
EXTT9=
PLAYORDER=
